<svg xmlns="http://www.w3.org/2000/svg" viewBox="0 0 512 512" fill="none">
  <rect width="512" height="512" rx="96" fill="#2563EB"/>
  <path d="M256 80c-44 0-80 16-100 44-20 28-24 64-16 96 8 32 24 64 36 100 12 36 20 72 28 100 4 16 20 16 24 0 8-28 16-56 24-80s20-52 28-76c8-24 12-48 12-72 0-32-4-60-20-80S300 80 256 80z" fill="white" stroke="white" stroke-width="8"/>
  <path d="M256 80c44 0 80 16 100 44 20 28 24 64 16 96-8 32-24 64-36 100-12 36-20 72-28 100-4 16-20 16-24 0-8-28-16-56-24-80s-20-52-28-76c-8-24-12-48-12-72 0-32 4-60 20-80s56-32 16-32" fill="white" opacity="0.9"/>
  <ellipse cx="256" cy="180" rx="60" ry="40" fill="#2563EB" opacity="0.15"/>
</svg>
